<mxfile host="Electron" agent="Mozilla/5.0 (Windows NT 10.0; Win64; x64) AppleWebKit/537.36 (KHTML, like Gecko) draw.io/27.0.9 Chrome/134.0.6998.205 Electron/35.4.0 Safari/537.36" version="27.0.9">
  <diagram name="Page-1" id="dOP9yM22HWnwzDdJgpXO">
    <mxGraphModel dx="786" dy="610" grid="1" gridSize="10" guides="1" tooltips="1" connect="1" arrows="1" fold="1" page="0" pageScale="1" pageWidth="850" pageHeight="1100" math="0" shadow="0">
      <root>
        <mxCell id="0" />
        <mxCell id="1" parent="0" />
        <mxCell id="teau1XTDoRILukO9W9tE-2" value="" style="rounded=1;whiteSpace=wrap;html=1;fillColor=none;" vertex="1" parent="1">
          <mxGeometry x="820" y="160" width="180" height="400" as="geometry" />
        </mxCell>
        <mxCell id="6HOqBM12vSjegTup5j96-1" value="" style="rounded=0;whiteSpace=wrap;html=1;dashed=1;" parent="1" vertex="1">
          <mxGeometry x="80" y="150" width="170" height="410" as="geometry" />
        </mxCell>
        <mxCell id="6HOqBM12vSjegTup5j96-2" value="&lt;font style=&quot;font-size: 20px;&quot;&gt;Sources&lt;/font&gt;" style="rounded=1;whiteSpace=wrap;html=1;fillColor=default;strokeColor=none;" parent="1" vertex="1">
          <mxGeometry x="105" y="130" width="120" height="40" as="geometry" />
        </mxCell>
        <mxCell id="6HOqBM12vSjegTup5j96-3" value="&lt;font style=&quot;font-size: 20px;&quot;&gt;&lt;b&gt;Bronze Layer&lt;/b&gt;&lt;/font&gt;" style="rounded=1;whiteSpace=wrap;html=1;fillColor=#FFCCCC;strokeColor=#ae4132;fontColor=#000000;" parent="1" vertex="1">
          <mxGeometry x="305" y="100" width="170" height="40" as="geometry" />
        </mxCell>
        <mxCell id="6HOqBM12vSjegTup5j96-4" value="" style="rounded=1;whiteSpace=wrap;html=1;" parent="1" vertex="1">
          <mxGeometry x="300" y="150" width="180" height="410" as="geometry" />
        </mxCell>
        <mxCell id="kAyFwqX3j-bUUquSIh9v-18" style="edgeStyle=orthogonalEdgeStyle;rounded=0;orthogonalLoop=1;jettySize=auto;html=1;" parent="1" source="6HOqBM12vSjegTup5j96-5" target="kAyFwqX3j-bUUquSIh9v-11" edge="1">
          <mxGeometry relative="1" as="geometry" />
        </mxCell>
        <mxCell id="6HOqBM12vSjegTup5j96-5" value="&lt;span style=&quot;font-size: 16px;&quot;&gt;crm_cust_info&lt;/span&gt;" style="rounded=1;whiteSpace=wrap;html=1;fillColor=#FFCCCC;strokeColor=#ae4132;fontColor=#000000;" parent="1" vertex="1">
          <mxGeometry x="315" y="220" width="150" height="40" as="geometry" />
        </mxCell>
        <mxCell id="kAyFwqX3j-bUUquSIh9v-24" style="edgeStyle=orthogonalEdgeStyle;rounded=0;orthogonalLoop=1;jettySize=auto;html=1;" parent="1" source="6HOqBM12vSjegTup5j96-6" target="kAyFwqX3j-bUUquSIh9v-12" edge="1">
          <mxGeometry relative="1" as="geometry" />
        </mxCell>
        <mxCell id="6HOqBM12vSjegTup5j96-6" value="&lt;font style=&quot;font-size: 16px;&quot;&gt;crm_sales_details&lt;/font&gt;" style="rounded=1;whiteSpace=wrap;html=1;fillColor=#FFCCCC;strokeColor=#ae4132;fontColor=#000000;" parent="1" vertex="1">
          <mxGeometry x="315" y="170" width="150" height="40" as="geometry" />
        </mxCell>
        <mxCell id="kAyFwqX3j-bUUquSIh9v-19" style="edgeStyle=orthogonalEdgeStyle;rounded=0;orthogonalLoop=1;jettySize=auto;html=1;" parent="1" source="6HOqBM12vSjegTup5j96-8" target="kAyFwqX3j-bUUquSIh9v-13" edge="1">
          <mxGeometry relative="1" as="geometry" />
        </mxCell>
        <mxCell id="6HOqBM12vSjegTup5j96-8" value="&lt;span style=&quot;font-size: 16px;&quot;&gt;&lt;font style=&quot;color: rgb(0, 0, 0);&quot;&gt;crm_prd_info&lt;/font&gt;&lt;/span&gt;" style="rounded=1;whiteSpace=wrap;html=1;fillColor=#FFCCCC;strokeColor=#ae4132;fontColor=#000000;" parent="1" vertex="1">
          <mxGeometry x="315" y="270" width="150" height="40" as="geometry" />
        </mxCell>
        <mxCell id="6HOqBM12vSjegTup5j96-16" value="" style="edgeStyle=orthogonalEdgeStyle;rounded=0;orthogonalLoop=1;jettySize=auto;html=1;entryX=0;entryY=0.5;entryDx=0;entryDy=0;" parent="1" source="6HOqBM12vSjegTup5j96-10" target="6HOqBM12vSjegTup5j96-6" edge="1">
          <mxGeometry relative="1" as="geometry">
            <Array as="points">
              <mxPoint x="270" y="240" />
              <mxPoint x="270" y="190" />
            </Array>
          </mxGeometry>
        </mxCell>
        <mxCell id="6HOqBM12vSjegTup5j96-17" style="edgeStyle=orthogonalEdgeStyle;rounded=0;orthogonalLoop=1;jettySize=auto;html=1;" parent="1" source="6HOqBM12vSjegTup5j96-10" target="6HOqBM12vSjegTup5j96-5" edge="1">
          <mxGeometry relative="1" as="geometry" />
        </mxCell>
        <mxCell id="6HOqBM12vSjegTup5j96-18" style="edgeStyle=orthogonalEdgeStyle;rounded=0;orthogonalLoop=1;jettySize=auto;html=1;entryX=0;entryY=0.5;entryDx=0;entryDy=0;" parent="1" source="6HOqBM12vSjegTup5j96-10" target="6HOqBM12vSjegTup5j96-8" edge="1">
          <mxGeometry relative="1" as="geometry">
            <Array as="points">
              <mxPoint x="270" y="240" />
              <mxPoint x="270" y="290" />
            </Array>
          </mxGeometry>
        </mxCell>
        <mxCell id="6HOqBM12vSjegTup5j96-10" value="&lt;b&gt;&lt;font style=&quot;font-size: 15px;&quot;&gt;CRM&lt;/font&gt;&lt;/b&gt;" style="image;aspect=fixed;html=1;points=[];align=center;fontSize=12;image=img/lib/azure2/general/Folder_Blank.svg;" parent="1" vertex="1">
          <mxGeometry x="140" y="220" width="50" height="40.58" as="geometry" />
        </mxCell>
        <mxCell id="6HOqBM12vSjegTup5j96-26" style="edgeStyle=orthogonalEdgeStyle;rounded=0;orthogonalLoop=1;jettySize=auto;html=1;entryX=0;entryY=0.5;entryDx=0;entryDy=0;" parent="1" source="6HOqBM12vSjegTup5j96-11" target="6HOqBM12vSjegTup5j96-20" edge="1">
          <mxGeometry relative="1" as="geometry" />
        </mxCell>
        <mxCell id="6HOqBM12vSjegTup5j96-27" style="edgeStyle=orthogonalEdgeStyle;rounded=0;orthogonalLoop=1;jettySize=auto;html=1;entryX=0;entryY=0.5;entryDx=0;entryDy=0;" parent="1" source="6HOqBM12vSjegTup5j96-11" target="6HOqBM12vSjegTup5j96-21" edge="1">
          <mxGeometry relative="1" as="geometry">
            <Array as="points">
              <mxPoint x="270" y="450" />
              <mxPoint x="270" y="400" />
            </Array>
          </mxGeometry>
        </mxCell>
        <mxCell id="6HOqBM12vSjegTup5j96-28" style="edgeStyle=orthogonalEdgeStyle;rounded=0;orthogonalLoop=1;jettySize=auto;html=1;entryX=0;entryY=0.5;entryDx=0;entryDy=0;" parent="1" source="6HOqBM12vSjegTup5j96-11" target="6HOqBM12vSjegTup5j96-19" edge="1">
          <mxGeometry relative="1" as="geometry">
            <Array as="points">
              <mxPoint x="270" y="450" />
              <mxPoint x="270" y="500" />
            </Array>
          </mxGeometry>
        </mxCell>
        <mxCell id="6HOqBM12vSjegTup5j96-11" value="&lt;b&gt;&lt;font style=&quot;font-size: 15px;&quot;&gt;ERP&lt;/font&gt;&lt;/b&gt;" style="image;aspect=fixed;html=1;points=[];align=center;fontSize=12;image=img/lib/azure2/general/Folder_Blank.svg;" parent="1" vertex="1">
          <mxGeometry x="140" y="430" width="50" height="40.58" as="geometry" />
        </mxCell>
        <mxCell id="kAyFwqX3j-bUUquSIh9v-22" style="edgeStyle=orthogonalEdgeStyle;rounded=0;orthogonalLoop=1;jettySize=auto;html=1;" parent="1" source="6HOqBM12vSjegTup5j96-19" target="kAyFwqX3j-bUUquSIh9v-14" edge="1">
          <mxGeometry relative="1" as="geometry" />
        </mxCell>
        <mxCell id="6HOqBM12vSjegTup5j96-19" value="&lt;span style=&quot;font-size: 16px;&quot;&gt;erp_px_cat_g1v2&lt;/span&gt;" style="rounded=1;whiteSpace=wrap;html=1;fillColor=#FFCCCC;strokeColor=#ae4132;fontColor=#000000;" parent="1" vertex="1">
          <mxGeometry x="315" y="480" width="150" height="40" as="geometry" />
        </mxCell>
        <mxCell id="kAyFwqX3j-bUUquSIh9v-21" style="edgeStyle=orthogonalEdgeStyle;rounded=0;orthogonalLoop=1;jettySize=auto;html=1;" parent="1" source="6HOqBM12vSjegTup5j96-20" target="kAyFwqX3j-bUUquSIh9v-15" edge="1">
          <mxGeometry relative="1" as="geometry" />
        </mxCell>
        <mxCell id="6HOqBM12vSjegTup5j96-20" value="&lt;span style=&quot;font-size: 16px;&quot;&gt;erp_loc_a101&lt;/span&gt;" style="rounded=1;whiteSpace=wrap;html=1;fillColor=#FFCCCC;strokeColor=#ae4132;fontColor=#000000;" parent="1" vertex="1">
          <mxGeometry x="315" y="430" width="150" height="40" as="geometry" />
        </mxCell>
        <mxCell id="kAyFwqX3j-bUUquSIh9v-23" style="edgeStyle=orthogonalEdgeStyle;rounded=0;orthogonalLoop=1;jettySize=auto;html=1;" parent="1" source="6HOqBM12vSjegTup5j96-21" target="kAyFwqX3j-bUUquSIh9v-16" edge="1">
          <mxGeometry relative="1" as="geometry" />
        </mxCell>
        <mxCell id="6HOqBM12vSjegTup5j96-21" value="&lt;span style=&quot;font-size: 16px;&quot;&gt;erp_cust_az12&lt;/span&gt;" style="rounded=1;whiteSpace=wrap;html=1;fillColor=#FFCCCC;strokeColor=#ae4132;fontColor=#000000;" parent="1" vertex="1">
          <mxGeometry x="315" y="380" width="150" height="40" as="geometry" />
        </mxCell>
        <mxCell id="kAyFwqX3j-bUUquSIh9v-9" value="&lt;font style=&quot;font-size: 20px;&quot;&gt;&lt;b&gt;Silver Layer&lt;/b&gt;&lt;/font&gt;" style="rounded=1;whiteSpace=wrap;html=1;fillColor=#E6E6E6;strokeColor=#E6E6E6;fontColor=#000000;" parent="1" vertex="1">
          <mxGeometry x="560" y="100" width="170" height="40" as="geometry" />
        </mxCell>
        <mxCell id="kAyFwqX3j-bUUquSIh9v-10" value="" style="rounded=1;whiteSpace=wrap;html=1;fillColor=none;" parent="1" vertex="1">
          <mxGeometry x="555" y="150" width="180" height="410" as="geometry" />
        </mxCell>
        <mxCell id="kAyFwqX3j-bUUquSIh9v-11" value="&lt;span style=&quot;font-size: 16px;&quot;&gt;crm_cust_info&lt;/span&gt;" style="rounded=1;whiteSpace=wrap;html=1;fillColor=#E6E6E6;strokeColor=#ae4132;fontColor=#000000;" parent="1" vertex="1">
          <mxGeometry x="570" y="230" width="150" height="40" as="geometry" />
        </mxCell>
        <mxCell id="kAyFwqX3j-bUUquSIh9v-12" value="&lt;font style=&quot;font-size: 16px;&quot;&gt;crm_sales_details&lt;/font&gt;" style="rounded=1;whiteSpace=wrap;html=1;fillColor=#E6E6E6;strokeColor=#ae4132;fontColor=#000000;" parent="1" vertex="1">
          <mxGeometry x="572.5" y="170" width="145" height="40" as="geometry" />
        </mxCell>
        <mxCell id="kAyFwqX3j-bUUquSIh9v-13" value="&lt;span style=&quot;font-size: 16px;&quot;&gt;&lt;font style=&quot;&quot;&gt;crm_prd_info&lt;/font&gt;&lt;/span&gt;" style="rounded=1;whiteSpace=wrap;html=1;fillColor=#E6E6E6;strokeColor=#ae4132;fontColor=#000000;" parent="1" vertex="1">
          <mxGeometry x="570" y="290" width="150" height="40" as="geometry" />
        </mxCell>
        <mxCell id="kAyFwqX3j-bUUquSIh9v-14" value="&lt;span style=&quot;font-size: 16px;&quot;&gt;erp_px_cat_g1v2&lt;/span&gt;" style="rounded=1;whiteSpace=wrap;html=1;fillColor=#E6E6E6;strokeColor=#ae4132;fontColor=#000000;" parent="1" vertex="1">
          <mxGeometry x="567.5" y="480" width="150" height="40" as="geometry" />
        </mxCell>
        <mxCell id="kAyFwqX3j-bUUquSIh9v-15" value="&lt;span style=&quot;font-size: 16px;&quot;&gt;erp_loc_a101&lt;/span&gt;" style="rounded=1;whiteSpace=wrap;html=1;fillColor=#E6E6E6;strokeColor=#ae4132;fontColor=#000000;" parent="1" vertex="1">
          <mxGeometry x="570" y="430.58" width="150" height="40" as="geometry" />
        </mxCell>
        <mxCell id="kAyFwqX3j-bUUquSIh9v-16" value="&lt;span style=&quot;font-size: 16px;&quot;&gt;erp_cust_az12&lt;/span&gt;" style="rounded=1;whiteSpace=wrap;html=1;fillColor=#E6E6E6;strokeColor=#ae4132;fontColor=#000000;" parent="1" vertex="1">
          <mxGeometry x="570" y="380" width="150" height="40" as="geometry" />
        </mxCell>
        <mxCell id="teau1XTDoRILukO9W9tE-1" value="&lt;font style=&quot;font-size: 20px;&quot;&gt;&lt;b&gt;Gold Layer&lt;/b&gt;&lt;/font&gt;" style="rounded=1;whiteSpace=wrap;html=1;fillColor=#FF9933;strokeColor=#FFB366;fontColor=#000000;" vertex="1" parent="1">
          <mxGeometry x="825" y="100" width="170" height="40" as="geometry" />
        </mxCell>
        <mxCell id="teau1XTDoRILukO9W9tE-3" value="&lt;span style=&quot;font-size: 16px;&quot;&gt;dim_customers&lt;/span&gt;" style="rounded=1;whiteSpace=wrap;html=1;fillColor=#FF9933;strokeColor=#ae4132;fontColor=#000000;" vertex="1" parent="1">
          <mxGeometry x="835" y="340" width="150" height="40" as="geometry" />
        </mxCell>
        <mxCell id="teau1XTDoRILukO9W9tE-4" value="&lt;span style=&quot;font-size: 16px;&quot;&gt;fact_sales&lt;/span&gt;" style="rounded=1;whiteSpace=wrap;html=1;fillColor=#FF9933;strokeColor=#ae4132;fontColor=#000000;" vertex="1" parent="1">
          <mxGeometry x="835" y="210" width="150" height="40" as="geometry" />
        </mxCell>
        <mxCell id="teau1XTDoRILukO9W9tE-5" value="&lt;span style=&quot;font-size: 16px;&quot;&gt;dim_products&lt;/span&gt;" style="rounded=1;whiteSpace=wrap;html=1;fillColor=#FF9933;strokeColor=#ae4132;fontColor=#000000;" vertex="1" parent="1">
          <mxGeometry x="835" y="460" width="150" height="40" as="geometry" />
        </mxCell>
        <mxCell id="teau1XTDoRILukO9W9tE-10" value="" style="endArrow=classic;html=1;rounded=0;exitX=0.957;exitY=0.783;exitDx=0;exitDy=0;exitPerimeter=0;" edge="1" parent="1" source="kAyFwqX3j-bUUquSIh9v-12" target="teau1XTDoRILukO9W9tE-4">
          <mxGeometry width="50" height="50" relative="1" as="geometry">
            <mxPoint x="750" y="200" as="sourcePoint" />
            <mxPoint x="800" y="150" as="targetPoint" />
          </mxGeometry>
        </mxCell>
        <mxCell id="teau1XTDoRILukO9W9tE-11" value="" style="endArrow=classic;html=1;rounded=0;exitX=1;exitY=0.75;exitDx=0;exitDy=0;entryX=0;entryY=0.25;entryDx=0;entryDy=0;jumpStyle=gap;" edge="1" parent="1" source="kAyFwqX3j-bUUquSIh9v-11" target="teau1XTDoRILukO9W9tE-3">
          <mxGeometry width="50" height="50" relative="1" as="geometry">
            <mxPoint x="720" y="330" as="sourcePoint" />
            <mxPoint x="800" y="370" as="targetPoint" />
          </mxGeometry>
        </mxCell>
        <mxCell id="teau1XTDoRILukO9W9tE-12" value="" style="endArrow=classic;html=1;rounded=0;exitX=1;exitY=0.75;exitDx=0;exitDy=0;entryX=0;entryY=0.25;entryDx=0;entryDy=0;jumpStyle=gap;" edge="1" parent="1" source="kAyFwqX3j-bUUquSIh9v-13" target="teau1XTDoRILukO9W9tE-5">
          <mxGeometry width="50" height="50" relative="1" as="geometry">
            <mxPoint x="770" y="460" as="sourcePoint" />
            <mxPoint x="894" y="478" as="targetPoint" />
          </mxGeometry>
        </mxCell>
        <mxCell id="teau1XTDoRILukO9W9tE-13" value="" style="endArrow=classic;html=1;rounded=0;entryX=0.06;entryY=0.733;entryDx=0;entryDy=0;entryPerimeter=0;exitX=1;exitY=0.5;exitDx=0;exitDy=0;jumpStyle=gap;" edge="1" parent="1" source="kAyFwqX3j-bUUquSIh9v-14">
          <mxGeometry width="50" height="50" relative="1" as="geometry">
            <mxPoint x="740" y="500" as="sourcePoint" />
            <mxPoint x="835" y="493.29999999999995" as="targetPoint" />
          </mxGeometry>
        </mxCell>
        <mxCell id="teau1XTDoRILukO9W9tE-14" value="" style="endArrow=classic;html=1;rounded=0;entryX=0;entryY=0.5;entryDx=0;entryDy=0;jumpStyle=gap;" edge="1" parent="1" source="kAyFwqX3j-bUUquSIh9v-16" target="teau1XTDoRILukO9W9tE-3">
          <mxGeometry width="50" height="50" relative="1" as="geometry">
            <mxPoint x="750" y="400" as="sourcePoint" />
            <mxPoint x="841.5" y="418" as="targetPoint" />
          </mxGeometry>
        </mxCell>
        <mxCell id="teau1XTDoRILukO9W9tE-15" value="" style="endArrow=classic;html=1;rounded=0;exitX=1;exitY=0.5;exitDx=0;exitDy=0;entryX=0;entryY=0.5;entryDx=0;entryDy=0;jumpStyle=gap;" edge="1" parent="1" source="kAyFwqX3j-bUUquSIh9v-15" target="teau1XTDoRILukO9W9tE-3">
          <mxGeometry width="50" height="50" relative="1" as="geometry">
            <mxPoint x="760" y="442" as="sourcePoint" />
            <mxPoint x="884" y="460" as="targetPoint" />
          </mxGeometry>
        </mxCell>
      </root>
    </mxGraphModel>
  </diagram>
</mxfile>
